<svg width="146" height="66" viewBox="0 0 146 66" fill="none" xmlns="http://www.w3.org/2000/svg">
<path d="M139.774 30.9024C139.828 30.1139 140.179 29.3752 140.757 28.8357C141.335 28.2961 142.096 27.996 142.887 27.996C143.678 27.996 144.439 28.2961 145.017 28.8357C145.595 29.3752 145.946 30.1139 146 30.9024C145.943 31.6884 145.59 32.4236 145.012 32.9603C144.435 33.4969 143.676 33.7952 142.887 33.7952C142.098 33.7952 141.339 33.4969 140.762 32.9603C140.184 32.4236 139.831 31.6884 139.774 30.9024ZM140.289 30.9024C140.334 31.5574 140.627 32.1708 141.107 32.6187C141.587 33.0667 142.22 33.3158 142.877 33.3158C143.534 33.3158 144.166 33.0667 144.646 32.6187C145.127 32.1708 145.419 31.5574 145.464 30.9024C145.419 30.2475 145.127 29.6341 144.646 29.1861C144.166 28.7382 143.534 28.4891 142.877 28.4891C142.22 28.4891 141.587 28.7382 141.107 29.1861C140.627 29.6341 140.334 30.2475 140.289 30.9024ZM144.306 32.46H143.601L143.134 31.3606C143.076 31.2576 143.076 31.2422 142.92 31.2422H142.366V32.46H141.765V29.3109C142.24 29.281 142.579 29.2625 142.92 29.2625C143.601 29.2625 144.216 29.4684 144.216 30.2539C144.221 30.4303 144.173 30.6042 144.078 30.7528C143.983 30.9015 143.845 31.0179 143.682 31.0867C143.937 31.5345 144.29 32.425 144.306 32.46ZM142.366 29.8246V30.713H142.971C143.345 30.713 143.612 30.6101 143.612 30.3012C143.612 29.9131 143.382 29.8091 142.939 29.8091C142.739 29.8091 142.56 29.8091 142.366 29.8235" fill="white"/>
<path d="M107.931 22.645H104.135V42.1268H107.931V22.645Z" fill="#D8E046"/>
<path d="M95.4513 30.9797C93.8279 30.9797 92.7668 31.5973 92.7668 33.3073V36.3165C92.7668 38.1891 93.3664 39.3792 95.3998 39.3792C97.9473 39.3792 98.2996 37.105 98.2996 35.0173C98.2996 32.8749 98.0009 30.9797 95.4513 30.9797ZM96.2661 42.201C95.6062 42.2731 94.9394 42.1557 94.3438 41.8624C93.7483 41.5692 93.2488 41.1124 92.9039 40.5456H92.8482V47.4328H89.0265V28.2948H92.2538L92.4959 29.8956H92.5515C92.9632 29.2627 93.5381 28.7525 94.2156 28.4188C94.8931 28.085 95.6481 27.9401 96.4011 27.9993C100.55 27.9993 102.177 31.2514 102.177 34.9658C102.177 38.8407 100.576 42.201 96.2661 42.201Z" fill="#5BC7E4"/>
<path d="M131.991 42.4408C130.202 46.9705 129.336 48 126.025 48C125.336 47.9965 124.648 47.9518 123.965 47.8662V44.6913C124.468 44.7496 124.975 44.7771 125.482 44.7736C126.945 44.7736 127.301 44.3937 127.787 43.1748L128.414 41.6306L123.07 28.2948H127.219L130.366 37.7021H130.422L133.484 28.2948H137.575L131.991 42.4408Z" fill="#E31E2D"/>
<path d="M122.227 38.6997V33.4741C122.227 29.5693 120.737 27.9973 116.752 27.9973C114.472 27.9882 112.225 28.5472 110.216 29.6238L111.409 32.2263C112.926 31.3433 114.642 30.8584 116.397 30.817C117.778 30.817 118.404 31.2226 118.404 32.4971V33.1446C115.016 33.121 109.89 33.5811 109.89 38.0779C109.89 40.7092 111.707 42.2267 114.282 42.2267C115.933 42.2267 117.533 41.6589 118.814 40.6186C118.822 40.685 118.834 40.7508 118.851 40.8153C119.263 42.1268 121.517 42.2154 123.221 42.1268L123.358 39.2289C122.643 39.2062 122.225 39.1136 122.225 38.6997M118.484 38.5669C117.595 39.2467 116.512 39.6263 115.393 39.6509C115.149 39.668 114.904 39.6316 114.675 39.5443C114.447 39.457 114.24 39.3208 114.069 39.1453C113.899 38.9699 113.769 38.7593 113.688 38.5284C113.607 38.2974 113.578 38.0516 113.602 37.8082C113.602 35.3436 116.692 35.3168 118.484 35.3168V38.5669Z" fill="#FCBD3F"/>
<path d="M49.6381 31.0054C47.2503 31.0054 46.5179 32.4415 46.5179 35.0986C46.5179 37.8082 47.2801 39.2989 49.6649 39.2989C51.9981 39.2989 52.7552 37.838 52.7552 35.0986C52.7552 32.4415 52.0238 31.0054 49.6401 31.0054M49.6401 42.1989C44.9212 42.1989 42.6457 39.3236 42.6457 35.0955C42.6457 31.1392 44.6791 27.9921 49.6401 27.9921C54.2241 27.9921 56.6088 30.7027 56.6088 35.0955C56.6088 39.2958 54.3848 42.1989 49.6401 42.1989Z" fill="white"/>
<path d="M30.5449 23.8217V27.2097H35.6419V42.1268H39.6594V27.2097H44.7533V23.8217H30.5449Z" fill="white"/>
<path d="M65.5399 38.9807C63.5889 39.0291 63.4024 38.7749 63.387 37.6188V31.3575H66.533V28.2948H63.387V24.6916H59.6157V28.2948H57.368V31.3595H59.591V37.8452C59.591 41.12 60.4862 42.1505 64.174 42.1505C64.9631 42.1276 65.7504 42.0641 66.533 41.9601V38.9149C66.2497 38.9437 66.0179 38.9705 65.5399 38.9807Z" fill="white"/>
<path d="M86.8828 22.645H83.0848V42.1268H86.8828V22.645Z" fill="white"/>
<path d="M80.4261 38.6997V33.4741C80.4261 29.5693 78.9345 27.9973 74.948 27.9973C72.6679 27.9886 70.4216 28.5476 68.4119 29.6238L69.6027 32.2263C71.1211 31.3433 72.8383 30.8584 74.5946 30.817C75.9801 30.817 76.6023 31.2226 76.6023 32.4971V33.1446C73.2122 33.121 68.0884 33.5811 68.0884 38.0779C68.0884 40.7092 69.9035 42.2267 72.4798 42.2267C74.1305 42.2264 75.7309 41.6586 77.0123 40.6186C77.0181 40.6849 77.0292 40.7507 77.0453 40.8153C77.4573 42.1268 79.7163 42.2154 81.416 42.1268L81.5541 39.2289C80.8412 39.2062 80.4292 39.1136 80.4292 38.6997M76.6868 38.5669C75.7975 39.2461 74.7154 39.6256 73.5964 39.6509C73.3523 39.668 73.1073 39.6316 72.8787 39.5443C72.6501 39.457 72.4433 39.3208 72.2728 39.1453C72.1023 38.9698 71.9722 38.7592 71.8916 38.5283C71.811 38.2973 71.7818 38.0516 71.8061 37.8082C71.8061 35.3436 74.8964 35.3168 76.6868 35.3168V38.5669Z" fill="white"/>
<path d="M7.82886 23.1999C7.94401 23.1596 8.04379 23.0846 8.11439 22.9852C8.18499 22.8858 8.22291 22.7669 8.22291 22.645C8.22291 22.5231 8.18499 22.4042 8.11439 22.3048C8.04379 22.2054 7.94401 22.1303 7.82886 22.0901L0.962126 18.1297C0.432648 17.825 0 18.0762 0 18.6846V26.6116C0 27.221 0.432648 27.4712 0.962126 27.1675L7.82886 23.1999Z" fill="#FCBD3F"/>
<path d="M7.82886 33.3392C7.94389 33.2987 8.04351 33.2235 8.11398 33.1241C8.18445 33.0246 8.2223 32.9057 8.2223 32.7838C8.2223 32.6619 8.18445 32.543 8.11398 32.4436C8.04351 32.3441 7.94389 32.2689 7.82886 32.2284L0.962126 28.2701C0.432648 27.9653 0 28.2155 0 28.8239V36.7509C0 37.3634 0.432648 37.6105 0.962126 37.3037L7.82886 33.3392Z" fill="#7F4C9C"/>
<path d="M7.82886 43.4816C7.94388 43.4417 8.04361 43.367 8.11418 43.2678C8.18476 43.1686 8.22268 43.05 8.22268 42.9283C8.22268 42.8066 8.18476 42.6879 8.11418 42.5888C8.04361 42.4896 7.94388 42.4149 7.82886 42.3749L0.962126 38.4114C0.432648 38.1026 0 38.3559 0 38.9663V46.8933C0 47.5017 0.432648 47.754 0.962126 47.4482L7.82886 43.4816Z" fill="#ED4F96"/>
<path d="M8.78481 31.6756C8.78481 32.2881 9.21848 32.5372 9.74796 32.2305L16.6137 28.2701C16.7293 28.2303 16.8296 28.1555 16.9006 28.056C16.9717 27.9565 17.0098 27.8374 17.0098 27.7152C17.0098 27.593 16.9717 27.4738 16.9006 27.3743C16.8296 27.2749 16.7293 27.2 16.6137 27.1603L9.74796 23.1999C9.21848 22.8972 8.78481 23.1443 8.78481 23.7558V31.6756Z" fill="#5BC7E4"/>
<path d="M8.78481 41.819C8.78481 42.4305 9.21848 42.6786 9.74796 42.3749L16.6137 38.4114C16.7297 38.3719 16.8304 38.2971 16.9017 38.1975C16.973 38.0979 17.0113 37.9785 17.0113 37.856C17.0113 37.7336 16.973 37.6142 16.9017 37.5146C16.8304 37.415 16.7297 37.3402 16.6137 37.3006L9.74796 33.3392C9.21848 33.0304 8.78481 33.2836 8.78481 33.8941V41.819Z" fill="#D8E046"/>
<path d="M17.5748 36.7478C17.5748 37.3603 18.0053 37.6074 18.5369 37.3006L25.4016 33.3392C25.5176 33.2997 25.6183 33.2249 25.6896 33.1253C25.7609 33.0257 25.7992 32.9063 25.7992 32.7838C25.7992 32.6613 25.7609 32.5419 25.6896 32.4423C25.6183 32.3427 25.5176 32.2679 25.4016 32.2284L18.542 28.2701C18.0105 27.9612 17.5799 28.2155 17.5799 28.826L17.5748 36.7478Z" fill="#E31E2D"/>
</svg>
